<mxfile host="app.diagrams.net" modified="2023-05-25T14:43:13.972Z" agent="Mozilla/5.0 (Windows NT 10.0; Win64; x64) AppleWebKit/537.36 (KHTML, like Gecko) Chrome/113.0.0.0 Safari/537.36" version="21.2.9" etag="55a9sJ_O7KP4WqFPbW_G" type="github">
  <diagram name="PÃ¡gina-1" id="mk9D7FBwVNZy9Qb_2wP9">
    <mxGraphModel>
      <root>
        <mxCell id="0" />
        <mxCell id="1" parent="0" />
      </root>
    </mxGraphModel>
  </diagram>
</mxfile>
